# xmcd
#
# Track frame offsets:
#	150
#	11981
#	27476
#	41820
#	55515
#	69161
#	83144
#	91499
#	101153
#	111209
#	130500
#	146379
#	158013
#	174884
#	184611
#	201383
#	213658
#	226871
#	239806
#	251910
#	263762
#	288214
#
# Disc length: 4011 seconds
#
# Revision: 0
# Processed by: cddbd v1.4b42PL1 Copyright (c) Steve Scherf et al.
# Submitted via: EZCDDA 4.3.3.2
#
DISCID=360fa916
DTITLE=Jackie Wilson - Titan of Soul 2-3
DYEAR=1900
DGENRE=
TTITLE0=Years From Now
TTITLE1=You Don't Know What It Means
TTITLE2=The Greatest Hurt
TTITLE3=I Just Can't Help It
TTITLE4=Baby Workout
TTITLE5=Shake A Hand (w-Linda Hopkins)
TTITLE6=When The Saints Go Marching In
TTITLE7=Shake! Shake! Shake!
TTITLE8=Say You Will
TTITLE9=Danny Boy
TTITLE10=No Pity (In the Naked City)
TTITLE11=Teardrop Avenue
TTITLE12=Star Dust
TTITLE13=Pledging My Love
TTITLE14=You'll Never Walk Alone
TTITLE15=I Want To Be Around
TTITLE16=Over The Rainbow
TTITLE17=You Don't Know Me
TTITLE18=Georgia On My Mind
TTITLE19=Rags To Riches
TTITLE20=Brand New Thing
TTITLE21=Soul Galore
EXTD=
EXTT0=
EXTT1=
EXTT2=
EXTT3=
EXTT4=
EXTT5=
EXTT6=
EXTT7=
EXTT8=
EXTT9=
EXTT10=
EXTT11=
EXTT12=
EXTT13=
EXTT14=
EXTT15=
EXTT16=
EXTT17=
EXTT18=
EXTT19=
EXTT20=
EXTT21=
PLAYORDER=
